<svg aria-hidden="true" style="position: absolute; width: 0; height: 0; overflow: hidden;" version="1.1" xmlns="http://www.w3.org/2000/svg" xmlns:xlink="http://www.w3.org/1999/xlink">
<defs>
<symbol id="icon-play-button" viewBox="0 0 32 32">
<path fill="#4985ff" style="fill: var(--color1, #4985ff)" d="M32 16c0 8.837-7.163 16-16 16s-16-7.163-16-16c0-8.837 7.163-16 16-16s16 7.163 16 16z"></path>
<path fill="#fff" style="fill: var(--color2, #fff)" d="M16 0c-8.837 0-16 7.163-16 16 0 8.832 7.163 16 16 16 8.832 0 16-7.168 16-16 0-8.837-7.168-16-16-16zM21.525 16.848l-8 4.997c-0.16 0.101-0.341 0.155-0.528 0.155-0.165 0-0.331-0.043-0.485-0.128-0.32-0.176-0.512-0.512-0.512-0.875v-10c0-0.363 0.192-0.699 0.512-0.875s0.709-0.165 1.013 0.027l8 4.997c0.293 0.187 0.475 0.507 0.475 0.853 0 0.341-0.181 0.661-0.475 0.848z"></path>
</symbol>
<symbol id="icon-project" viewBox="0 0 32 32">
<path fill="#4985ff" style="fill: var(--color1, #4985ff)" d="M31.464 0h-24c-0.296 0-0.536 0.232-0.536 0.528v8h1.072v-7.464h22.928v29.336c0.008 0.28-0.208 0.512-0.488 0.528-0.048 0-0.096 0-0.136 0-0.096-0.008-0.192-0.008-0.288-0.016-0.008 0-0.016 0-0.024-0.008-1.736-0.184-3.112-1.56-3.304-3.304 0-0.008-0.008-0.016-0.008-0.024-0.016-0.128-0.016-0.256-0.016-0.376v-1.072c0-0.296-0.24-0.528-0.536-0.528h-18.128v-9.6h-1.072v9.6h-4.264c-0.296 0-0.536 0.232-0.536 0.528v1.072c0 2.648 2.152 4.792 4.8 4.8h23.52c0.864-0.024 1.552-0.736 1.552-1.6v-29.872c0-0.296-0.24-0.528-0.536-0.528zM6.928 30.928c-2.064 0-3.728-1.672-3.728-3.728v-0.536h22.4v0.536c0 0.168 0.008 0.344 0.024 0.52 0.008 0.048 0.016 0.096 0.024 0.136 0.016 0.136 0.040 0.264 0.064 0.384 0.008 0.048 0.024 0.088 0.032 0.136 0.032 0.128 0.072 0.256 0.112 0.376 0.016 0.040 0.024 0.072 0.040 0.112 0.048 0.128 0.104 0.256 0.168 0.384 0.008 0.032 0.024 0.056 0.032 0.080 0.072 0.136 0.144 0.264 0.224 0.392 0.008 0.016 0.016 0.040 0.032 0.056 0.088 0.136 0.176 0.264 0.28 0.392l0.016 0.024c0.112 0.144 0.24 0.288 0.376 0.416 0.112 0.12 0.232 0.224 0.352 0.32h-20.448z"></path>
<path fill="#4985ff" style="fill: var(--color1, #4985ff)" d="M17.6 14.928c0.136 0 0.272-0.056 0.376-0.152l2.128-2.136c0.208-0.208 0.208-0.544 0-0.752l-2.128-2.136c-0.104-0.096-0.24-0.152-0.376-0.152h-14.936c-1.472 0-2.664 1.192-2.664 2.664s1.192 2.664 2.664 2.664h14.936zM17.456 10.744l1.52 1.52-1.52 1.512-0.376-1.512 0.376-1.52zM4.264 10.664h12.12l-0.272 1.064h-10.784v1.072h10.784l0.272 1.064h-12.12v-3.2zM1.064 12.264c0-0.888 0.712-1.6 1.6-1.6h0.536v3.2h-0.536c-0.888 0-1.6-0.72-1.6-1.6z"></path>
<path fill="#4985ff" style="fill: var(--color1, #4985ff)" d="M12.264 22.928h16c0.296 0 0.536-0.24 0.536-0.528v-16c0-0.296-0.24-0.536-0.536-0.536-0.144 0-0.28 0.056-0.376 0.152l-16 16c-0.208 0.208-0.208 0.552 0 0.76 0.096 0.096 0.232 0.152 0.376 0.152zM27.728 7.68v1.384h-1.064v1.064h1.064v1.072h-1.064v1.064h1.064v1.064h-1.064v1.072h1.064v1.064h-1.064v1.064h1.064v1.072h-1.064v1.064h1.064v1.064h-1.064v1.072h1.064v1.064h-1.064v-1.064h-1.064v1.064h-1.072v-1.064h-1.064v1.064h-1.064v-1.064h-1.072v1.064h-1.064v-1.064h-1.064v1.064h-1.072v-1.064h-1.064v1.064h-1.064v-1.064h-1.072v1.064h-1.376l14.176-14.184z"></path>
<path fill="#4985ff" style="fill: var(--color1, #4985ff)" d="M19.992 19.728h5.072c0.296 0 0.536-0.24 0.536-0.528v-5.080c0-0.296-0.24-0.528-0.536-0.528-0.144 0-0.28 0.056-0.376 0.152l-5.080 5.072c-0.208 0.208-0.208 0.552 0 0.76 0.104 0.096 0.24 0.152 0.384 0.152zM24.528 15.408v3.256h-3.248l3.248-3.256z"></path>
<path fill="#4985ff" style="fill: var(--color1, #4985ff)" d="M13.864 3.2h10.664v1.064h-10.664v-1.064z"></path>
<path fill="#4985ff" style="fill: var(--color1, #4985ff)" d="M12.264 5.328h13.864v1.072h-13.864v-1.072z"></path>
<path fill="#4985ff" style="fill: var(--color1, #4985ff)" d="M9.064 16.528h3.2v1.072h-3.2v-1.072z"></path>
<path fill="#4985ff" style="fill: var(--color1, #4985ff)" d="M9.064 18.664h2.136v1.064h-2.136v-1.064z"></path>
</symbol>
<symbol id="icon-call" viewBox="0 0 32 32">
<path fill="#999" style="fill: var(--color3, #999)" d="M31.147 24.683l-6.464-4.331c-0.832-0.533-1.941-0.363-2.539 0.405l-1.877 2.432c-0.256 0.32-0.704 0.427-1.045 0.213l-0.363-0.192c-1.195-0.64-2.667-1.451-5.653-4.437s-3.797-4.459-4.437-5.653l-0.192-0.363c-0.192-0.341-0.107-0.789 0.213-1.024l2.411-1.899c0.789-0.597 0.96-1.707 0.427-2.517l-4.331-6.485c-0.555-0.832-1.664-1.088-2.517-0.576l-2.709 1.621c-0.853 0.512-1.493 1.323-1.749 2.261-0.981 3.563-0.235 9.685 8.789 18.731 7.189 7.189 12.544 9.109 16.213 9.109 0.853 0.021 1.685-0.107 2.517-0.32 0.939-0.256 1.749-0.896 2.24-1.749l1.643-2.688c0.512-0.875 0.277-1.984-0.576-2.539zM30.805 26.667l-1.621 2.709c-0.363 0.619-0.939 1.067-1.643 1.259-3.264 0.896-9.003 0.149-17.685-8.512-8.661-8.683-9.408-14.421-8.512-17.685 0.192-0.683 0.64-1.28 1.259-1.643l2.709-1.621c0.384-0.213 0.853-0.107 1.109 0.256l4.309 6.464c0.235 0.363 0.149 0.832-0.171 1.109l-2.432 1.877c-0.747 0.576-0.939 1.6-0.491 2.389l0.192 0.363c0.683 1.237 1.536 2.795 4.608 5.888 3.115 3.093 4.651 3.947 5.909 4.629l0.341 0.192c0.811 0.448 1.835 0.235 2.411-0.491l1.877-2.432c0.277-0.341 0.747-0.405 1.109-0.171l6.464 4.309c0.363 0.256 0.469 0.725 0.256 1.109z"></path>
<path fill="#999" style="fill: var(--color3, #999)" d="M18.133 5.333c4.992 0 9.045 4.053 9.067 9.067 0 0.277 0.235 0.533 0.533 0.533 0.277 0 0.533-0.256 0.533-0.533-0.021-5.611-4.544-10.133-10.133-10.133-0.299 0-0.533 0.235-0.533 0.533 0 0.277 0.235 0.533 0.533 0.533z"></path>
<path fill="#999" style="fill: var(--color3, #999)" d="M18.133 8.533c3.221 0 5.845 2.624 5.867 5.867 0 0.277 0.235 0.533 0.533 0.533 0.277 0 0.533-0.256 0.533-0.533-0.021-3.84-3.115-6.933-6.933-6.933-0.299 0-0.533 0.235-0.533 0.533 0 0.277 0.235 0.533 0.533 0.533z"></path>
<path fill="#999" style="fill: var(--color3, #999)" d="M18.133 11.733c1.451 0 2.645 1.195 2.667 2.667 0 0.277 0.235 0.533 0.533 0.533 0.277 0 0.533-0.256 0.533-0.533-0.021-2.069-1.685-3.733-3.733-3.733-0.299 0-0.533 0.235-0.533 0.533 0 0.277 0.235 0.533 0.533 0.533z"></path>
</symbol>
<symbol id="icon-right-arrow" viewBox="0 0 32 32">
<path fill="#999" style="fill: var(--color3, #999)" d="M10.016 30.080c-0.192 0.192-0.448 0.288-0.736 0.288-0.256 0-0.512-0.096-0.704-0.288-0.416-0.416-0.416-1.056 0-1.44l12.64-12.64-12.64-12.672c-0.416-0.384-0.416-1.024 0-1.44 0.384-0.384 1.024-0.384 1.44 0l13.376 13.376c0.384 0.384 0.384 1.056 0 1.44l-13.376 13.376z"></path>
</symbol>
<symbol id="icon-envelope" viewBox="0 0 32 32">
<path fill="#999" style="fill: var(--color3, #999)" d="M28.075 3.819h-24.171c-2.155 0-3.904 1.749-3.904 3.904v16.533c0 2.155 1.749 3.904 3.904 3.904h24.171c2.155 0 3.925-1.749 3.925-3.904v-16.533c0-2.155-1.771-3.904-3.925-3.904zM30.208 24.256c0 1.173-0.96 2.112-2.133 2.112h-24.171c-1.173 0-2.133-0.939-2.133-2.112v-16.533c0-1.152 0.96-2.112 2.133-2.112h24.171c1.173 0 2.133 0.96 2.133 2.112v16.533z"></path>
<path fill="#999" style="fill: var(--color3, #999)" d="M20.181 15.787l7.808-7.019c0.363-0.341 0.405-0.896 0.085-1.259-0.341-0.363-0.896-0.405-1.28-0.085l-10.795 9.707-2.091-1.899c-0.021 0-0.021 0-0.021-0.021-0.043-0.043-0.085-0.085-0.149-0.107l-8.576-7.68c-0.363-0.32-0.917-0.299-1.259 0.085-0.32 0.363-0.299 0.917 0.085 1.259l7.915 7.083-7.893 7.381c-0.363 0.341-0.363 0.896-0.043 1.259 0.192 0.192 0.427 0.277 0.661 0.277 0.213 0 0.448-0.064 0.619-0.235l8-7.488 2.176 1.941c0.171 0.149 0.384 0.235 0.597 0.235 0.192 0 0.427-0.085 0.597-0.235l2.219-2.005 7.957 7.552c0.171 0.171 0.405 0.256 0.619 0.256 0.235 0 0.469-0.085 0.661-0.277 0.32-0.363 0.32-0.939-0.043-1.259l-7.851-7.467z"></path>
</symbol>
<symbol id="icon-web-programming-1" viewBox="0 0 32 32">
<path fill="#4985ff" style="fill: var(--color1, #4985ff)" d="M12.619 22.421c-0.117 0-0.245-0.043-0.341-0.128l-3.413-2.912c-0.117-0.096-0.192-0.245-0.192-0.405 0-0.149 0.075-0.299 0.192-0.395l3.413-2.912c0.224-0.192 0.555-0.16 0.747 0.053 0.192 0.224 0.16 0.565-0.064 0.747l-2.944 2.507 2.944 2.517c0.224 0.181 0.256 0.523 0.064 0.736-0.107 0.128-0.256 0.192-0.405 0.192z"></path>
<path fill="#4985ff" style="fill: var(--color1, #4985ff)" d="M19.371 22.421c-0.149 0-0.299-0.064-0.405-0.192-0.192-0.213-0.16-0.555 0.064-0.736l2.944-2.517-2.944-2.507c-0.224-0.181-0.256-0.523-0.064-0.747 0.192-0.213 0.523-0.245 0.747-0.053l3.413 2.912c0.117 0.096 0.192 0.245 0.192 0.395 0 0.16-0.075 0.309-0.192 0.405l-3.413 2.912c-0.096 0.085-0.224 0.128-0.341 0.128z"></path>
<path fill="#4985ff" style="fill: var(--color1, #4985ff)" d="M14.784 24.608c-0.032 0-0.075-0.011-0.107-0.021-0.288-0.053-0.469-0.331-0.416-0.619l2.133-10.123c0.064-0.277 0.341-0.459 0.629-0.405 0.288 0.064 0.469 0.341 0.405 0.629l-2.133 10.112c-0.043 0.256-0.267 0.427-0.512 0.427z"></path>
<path fill="#4985ff" style="fill: var(--color1, #4985ff)" d="M28.448 30.112h-24.907c-1.952 0-3.541-1.589-3.541-3.541v-21.141c0-1.952 1.589-3.552 3.541-3.552h24.907c1.952 0 3.552 1.6 3.552 3.552v21.141c0 1.952-1.6 3.541-3.552 3.541zM3.541 2.933c-1.376 0-2.485 1.12-2.485 2.496v21.141c0 1.365 1.109 2.485 2.485 2.485h24.907c1.376 0 2.485-1.12 2.485-2.485v-21.141c0-1.376-1.109-2.496-2.485-2.496h-24.907z"></path>
<path fill="#4985ff" style="fill: var(--color1, #4985ff)" d="M31.467 10.336h-30.944c-0.288 0-0.523-0.235-0.523-0.523s0.235-0.533 0.523-0.533h30.944c0.288 0 0.533 0.245 0.533 0.533s-0.245 0.523-0.533 0.523z"></path>
<path fill="#4985ff" style="fill: var(--color1, #4985ff)" d="M9.024 7.808c-0.928 0-1.675-0.747-1.675-1.664 0-0.928 0.747-1.675 1.675-1.675 0.917 0 1.664 0.747 1.664 1.675 0 0.917-0.747 1.664-1.664 1.664zM9.024 5.525c-0.341 0-0.619 0.277-0.619 0.619s0.277 0.608 0.619 0.608c0.331 0 0.608-0.267 0.608-0.608s-0.277-0.619-0.608-0.619z"></path>
<path fill="#4985ff" style="fill: var(--color1, #4985ff)" d="M3.883 7.797c-0.917 0-1.664-0.747-1.664-1.675 0-0.917 0.747-1.675 1.664-1.675 0.928 0 1.675 0.757 1.675 1.675 0 0.928-0.747 1.675-1.675 1.675zM3.883 5.515c-0.331 0-0.608 0.267-0.608 0.608s0.277 0.619 0.608 0.619c0.341 0 0.619-0.277 0.619-0.619s-0.277-0.608-0.619-0.608z"></path>
<path fill="#4985ff" style="fill: var(--color1, #4985ff)" d="M14.155 7.829c-0.917 0-1.664-0.747-1.664-1.675 0-0.917 0.747-1.675 1.664-1.675 0.928 0 1.675 0.757 1.675 1.675 0 0.928-0.747 1.675-1.675 1.675zM14.155 5.547c-0.331 0-0.608 0.267-0.608 0.608s0.277 0.619 0.608 0.619c0.341 0 0.619-0.277 0.619-0.619s-0.277-0.608-0.619-0.608z"></path>
</symbol>
<symbol id="icon-placeholder" viewBox="0 0 32 32">
<path fill="#999" style="fill: var(--color3, #999)" d="M15.979 0c-6.485 0-11.733 5.248-11.733 11.712 0 2.965 1.856 7.168 5.547 12.48 2.709 3.883 5.355 6.891 5.483 7.019l0.704 0.789 0.683-0.789c0.107-0.128 2.773-3.136 5.461-7.019 3.691-5.312 5.568-9.515 5.568-12.48 0-6.464-5.248-11.712-11.712-11.712zM20.608 23.104c-1.835 2.624-3.669 4.885-4.629 6.037-0.981-1.152-2.816-3.392-4.629-6.016-3.435-4.928-5.248-8.853-5.248-11.413 0-5.44 4.437-9.856 9.877-9.856 5.419 0 9.835 4.416 9.835 9.856 0 2.539-1.792 6.485-5.205 11.392z"></path>
<path fill="#999" style="fill: var(--color3, #999)" d="M15.957 4.331c-3.819 0-6.912 3.093-6.912 6.912s3.093 6.933 6.912 6.933c3.819 0 6.933-3.115 6.933-6.933s-3.115-6.912-6.933-6.912zM15.957 16.299c-2.773 0-5.035-2.261-5.035-5.056 0-2.773 2.261-5.056 5.035-5.056 2.795 0 5.056 2.283 5.056 5.056 0 2.795-2.261 5.056-5.056 5.056z"></path>
</symbol>
</defs>
</svg>
